<svg width="16" height="16" viewBox="0 0 16 16" fill="none" xmlns="http://www.w3.org/2000/svg">
<path d="M8.00024 2.05273C6.82393 2.05273 5.67404 2.40155 4.69598 3.05507C3.71792 3.70859 2.95562 4.63746 2.50546 5.72422C2.05531 6.81099 1.93753 8.00683 2.16702 9.16053C2.3965 10.3142 2.96295 11.374 3.79472 12.2058C4.62649 13.0375 5.68623 13.604 6.83994 13.8335C7.99364 14.0629 9.18948 13.9452 10.2762 13.495C11.363 13.0449 12.2919 12.2825 12.9454 11.3045C13.5989 10.3264 13.9477 9.17654 13.9477 8.00023C13.9461 6.42335 13.319 4.9115 12.204 3.79647C11.089 2.68144 9.57712 2.05432 8.00024 2.05273ZM10.3227 8.37523H8.37524V10.3227C8.37524 10.4222 8.33573 10.5176 8.2654 10.5879C8.19508 10.6582 8.09969 10.6977 8.00024 10.6977C7.90078 10.6977 7.8054 10.6582 7.73507 10.5879C7.66475 10.5176 7.62524 10.4222 7.62524 10.3227V8.37523H5.67774C5.57828 8.37523 5.4829 8.33573 5.41257 8.2654C5.34225 8.19507 5.30274 8.09969 5.30274 8.00023C5.30274 7.90078 5.34225 7.8054 5.41257 7.73507C5.4829 7.66474 5.57828 7.62523 5.67774 7.62523H7.62524V5.67773C7.62524 5.57828 7.66475 5.4829 7.73507 5.41257C7.8054 5.34224 7.90078 5.30273 8.00024 5.30273C8.09969 5.30273 8.19508 5.34224 8.2654 5.41257C8.33573 5.4829 8.37524 5.57828 8.37524 5.67773V7.62523H10.3227C10.4222 7.62523 10.5176 7.66474 10.5879 7.73507C10.6582 7.8054 10.6977 7.90078 10.6977 8.00023C10.6977 8.09969 10.6582 8.19507 10.5879 8.2654C10.5176 8.33573 10.4222 8.37523 10.3227 8.37523Z" fill="white"/>
</svg>
