<svg width="20" height="20" viewBox="0 0 20 20" fill="none" xmlns="http://www.w3.org/2000/svg">
<path fill-rule="evenodd" clip-rule="evenodd" d="M10.0002 2.49268C11.9189 2.49268 13.8377 3.22768 15.3052 4.69518C16.003 5.39118 16.5567 6.21802 16.9345 7.12834C17.3122 8.03867 17.5067 9.01458 17.5067 10.0002C17.5067 10.9858 17.3122 11.9617 16.9345 12.872C16.5567 13.7823 16.003 14.6092 15.3052 15.3052C14.6092 16.003 13.7823 16.5567 12.872 16.9345C11.9617 17.3122 10.9858 17.5067 10.0002 17.5067C9.01457 17.5067 8.03866 17.3122 7.12833 16.9345C6.21801 16.5567 5.39117 16.003 4.69517 15.3052C3.99732 14.6092 3.44366 13.7823 3.06588 12.872C2.68811 11.9617 2.49365 10.9858 2.49365 10.0002C2.49365 9.01458 2.68811 8.03867 3.06588 7.12834C3.44366 6.21802 3.99732 5.39118 4.69517 4.69518C5.39063 3.99655 6.21735 3.4423 7.12778 3.06431C8.03821 2.68632 9.01439 2.49205 10.0002 2.49268ZM13.0664 6.27643C12.9036 6.28172 12.7494 6.35034 12.6364 6.46768L9.99517 9.11768L7.34392 6.47518C7.28609 6.41567 7.21699 6.36827 7.14065 6.33575C7.06431 6.30323 6.98226 6.28623 6.89928 6.28576C6.81631 6.28528 6.73407 6.30133 6.65736 6.33297C6.58065 6.36462 6.51101 6.41122 6.4525 6.47006C6.39399 6.5289 6.34779 6.5988 6.31658 6.67568C6.28537 6.75257 6.26979 6.8349 6.27073 6.91787C6.27168 7.00085 6.28914 7.0828 6.32209 7.15895C6.35504 7.23511 6.40283 7.30394 6.46267 7.36143L9.11267 10.0052L6.46892 12.6564C5.85517 13.2452 6.76392 14.1539 7.35267 13.5402L9.99642 10.8864L12.6477 13.5302C13.2364 14.1439 14.1452 13.2352 13.5314 12.6464L10.8814 10.0027L13.5214 7.35143C13.6127 7.26366 13.6751 7.15025 13.7005 7.02621C13.7258 6.90218 13.7129 6.77337 13.6634 6.65683C13.614 6.54029 13.5303 6.44151 13.4235 6.37359C13.3166 6.30566 13.1917 6.27178 13.0652 6.27643H13.0664Z" fill="#BA422D"/>
</svg>
