<svg width="12" height="13" viewBox="0 0 12 13" fill="none" xmlns="http://www.w3.org/2000/svg">
<circle cx="6" cy="6" r="5.5" stroke="black" stroke-opacity="0.5"/>
<path d="M5.42383 9V5.17871H6.4834V9H5.42383ZM5.95361 4.68994C5.79639 4.68994 5.66081 4.63753 5.54688 4.53271C5.43522 4.4279 5.37939 4.30143 5.37939 4.15332C5.37939 4.00521 5.43522 3.87988 5.54688 3.77734C5.66081 3.67253 5.79639 3.62012 5.95361 3.62012C6.11084 3.62012 6.24528 3.67253 6.35693 3.77734C6.47087 3.87988 6.52783 4.00521 6.52783 4.15332C6.52783 4.30143 6.47087 4.4279 6.35693 4.53271C6.24528 4.63753 6.11084 4.68994 5.95361 4.68994Z" fill="black" fill-opacity="0.5"/>
</svg>
