<svg width="20" height="20" viewBox="0 0 20 20" fill="none" xmlns="http://www.w3.org/2000/svg">
<path d="M10 2.5C14.1421 2.5 17.5 5.85786 17.5 10C17.5 14.1421 14.1421 17.5 10 17.5C5.85786 17.5 2.5 14.1421 2.5 10C2.5 5.85786 5.85786 2.5 10 2.5ZM12.6503 7.70498L9.06191 11.303L7.31694 9.55806C7.07286 9.31398 6.67714 9.31398 6.43306 9.55806C6.18898 9.80214 6.18898 10.1979 6.43306 10.4419L8.62056 12.6294C8.86487 12.8738 9.26105 12.8735 9.50503 12.6288L13.5354 8.58768C13.7792 8.34327 13.7786 7.94755 13.5342 7.70379C13.2898 7.46004 12.8941 7.46057 12.6503 7.70498Z" fill="#4E9E6F"/>
</svg>
