<svg width="20" height="20" viewBox="0 0 20 20" fill="none" xmlns="http://www.w3.org/2000/svg">
<g clip-path="url(#clip0_571_327)">
<path d="M15.7991 4.20107C12.8806 1.28259 8.11974 1.28259 5.18495 4.20107C2.26647 7.11954 2.26647 11.8804 5.18495 14.8152C6.65234 16.2826 8.57626 17.0163 10.4839 17.0163C12.4078 17.0163 14.3317 16.2826 15.7828 14.8152C18.7339 11.8804 18.7339 7.11954 15.7991 4.20107ZM6.1143 13.8858C3.8643 11.6195 3.71756 8.03259 5.67408 5.60324L14.3969 14.3261C11.9676 16.2826 8.3806 16.1522 6.1143 13.8858ZM15.3263 13.3967L6.60343 4.67389C7.72843 3.76085 9.1143 3.30433 10.5002 3.30433C12.0817 3.30433 13.6795 3.90759 14.886 5.11411C17.136 7.38041 17.2828 10.9674 15.3263 13.3967Z" fill="#6B5EC0"/>
</g>
<defs>
<clipPath id="clip0_571_327">
<rect width="15" height="15" fill="white" transform="translate(3 2)"/>
</clipPath>
</defs>
</svg>
