<svg width="18" height="18" viewBox="0 0 18 18" fill="none" xmlns="http://www.w3.org/2000/svg">
<path d="M4.5 14.6248C4.29413 14.6248 4.08938 14.5686 3.90825 14.4572C3.74532 14.3561 3.61086 14.2151 3.51755 14.0476C3.42425 13.8801 3.37519 13.6915 3.375 13.4998V4.4998C3.375 4.10942 3.5775 3.74717 3.90825 3.54242C4.07154 3.44203 4.25768 3.38481 4.44916 3.37615C4.64065 3.36749 4.83119 3.40768 5.00287 3.49292L14.0029 7.99292C14.1897 8.08652 14.3469 8.23028 14.4567 8.4081C14.5665 8.58593 14.6247 8.7908 14.6247 8.9998C14.6247 9.2088 14.5665 9.41367 14.4567 9.59149C14.3469 9.76932 14.1897 9.91307 14.0029 10.0067L5.00287 14.5067C4.84537 14.5854 4.671 14.6248 4.5 14.6248Z" fill="white"/>
</svg>
