<svg width="18" height="18" viewBox="0 0 18 18" fill="none" xmlns="http://www.w3.org/2000/svg">
<g clip-path="url(#clip0_553_141)">
<path d="M9 0C4.02975 0 0 4.02975 0 9C0 13.9703 4.02975 18 9 18C13.9703 18 18 13.9703 18 9C18 4.02975 13.9703 0 9 0ZM9 16.875C4.6575 16.875 1.125 13.3425 1.125 9C1.125 4.6575 4.6575 1.125 9 1.125C13.3425 1.125 16.875 4.6575 16.875 9C16.875 13.3425 13.3425 16.875 9 16.875ZM11.25 5.625H6.75C6.45163 5.625 6.16548 5.74353 5.9545 5.9545C5.74353 6.16548 5.625 6.45163 5.625 6.75V11.25C5.625 11.5484 5.74353 11.8345 5.9545 12.0455C6.16548 12.2565 6.45163 12.375 6.75 12.375H11.25C11.5484 12.375 11.8345 12.2565 12.0455 12.0455C12.2565 11.8345 12.375 11.5484 12.375 11.25V6.75C12.375 6.45163 12.2565 6.16548 12.0455 5.9545C11.8345 5.74353 11.5484 5.625 11.25 5.625Z" fill="white"/>
</g>
<defs>
<clipPath id="clip0_553_141">
<rect width="18" height="18" fill="white"/>
</clipPath>
</defs>
</svg>
