<svg width="20" height="20" viewBox="0 0 20 20" fill="none" xmlns="http://www.w3.org/2000/svg">
<path d="M16.6668 14.9998V5.83317C16.6668 4.24984 15.5835 2.99984 14.1668 2.58317V2.49984C14.1668 1.99984 13.8335 1.6665 13.3335 1.6665C12.8335 1.6665 12.5002 1.99984 12.5002 2.49984H10.8335C10.8335 1.99984 10.5002 1.6665 10.0002 1.6665C9.50016 1.6665 9.16683 1.99984 9.16683 2.49984H7.50016C7.50016 1.99984 7.16683 1.6665 6.66683 1.6665C6.16683 1.6665 5.8335 1.99984 5.8335 2.49984V2.58317C4.41683 2.99984 3.3335 4.24984 3.3335 5.83317V14.9998C3.3335 16.8332 4.8335 18.3332 6.66683 18.3332H13.3335C15.1668 18.3332 16.6668 16.8332 16.6668 14.9998ZM15.0002 14.9998C15.0002 15.9165 14.2502 16.6665 13.3335 16.6665H6.66683C5.75016 16.6665 5.00016 15.9165 5.00016 14.9998V5.83317C5.00016 5.1665 5.3335 4.6665 5.91683 4.4165C6.00016 4.74984 6.25016 4.99984 6.66683 4.99984C7.16683 4.99984 7.50016 4.6665 7.50016 4.1665H9.16683C9.16683 4.6665 9.50016 4.99984 10.0002 4.99984C10.5002 4.99984 10.8335 4.6665 10.8335 4.1665H12.5002C12.5002 4.6665 12.8335 4.99984 13.3335 4.99984C13.7502 4.99984 14.0002 4.74984 14.0835 4.4165C14.6668 4.6665 15.0002 5.1665 15.0002 5.83317V14.9998Z" fill="#2254C5"/>
<path d="M9.1665 11.6668H7.49984C6.99984 11.6668 6.6665 12.0002 6.6665 12.5002C6.6665 13.0002 6.99984 13.3335 7.49984 13.3335H9.1665C9.6665 13.3335 9.99984 13.0002 9.99984 12.5002C9.99984 12.0002 9.6665 11.6668 9.1665 11.6668ZM11.6665 8.3335H7.49984C6.99984 8.3335 6.6665 8.66683 6.6665 9.16683C6.6665 9.66683 6.99984 10.0002 7.49984 10.0002H11.6665C12.1665 10.0002 12.4998 9.66683 12.4998 9.16683C12.4998 8.66683 12.1665 8.3335 11.6665 8.3335Z" fill="#2254C5"/>
</svg>
