<svg width="18" height="18" viewBox="0 0 18 18" fill="none" xmlns="http://www.w3.org/2000/svg">
<path d="M4.72703 14.304C4.74067 14.3149 4.7562 14.3229 4.76993 14.3337C4.8441 14.391 4.92435 14.439 5.00077 14.4931C5.17192 14.6156 5.3433 14.7373 5.52457 14.8422C5.53027 14.8454 5.53643 14.8477 5.54213 14.851C5.76923 14.9815 6.0012 15.1032 6.24248 15.2049L6.3216 15.2379C6.43365 15.2847 6.54277 15.3301 6.6666 15.3734C6.98595 15.4803 7.25767 15.5543 7.5177 15.607C7.6839 15.6414 7.84177 15.6672 7.992 15.687C8.01495 15.6901 8.03842 15.6909 8.06145 15.6937C8.1666 15.7062 8.27168 15.7184 8.36588 15.7234C8.54077 15.741 8.7246 15.7498 8.89965 15.7498C12.6218 15.7498 15.6496 12.722 15.6496 8.9998C15.6496 8.58528 15.3142 8.2498 14.8996 8.2498C14.4851 8.2498 14.1496 8.58528 14.1496 8.9998C14.1496 11.8944 11.7942 14.2498 8.89965 14.2498C8.7282 14.2498 8.55937 14.2324 8.39062 14.2158C8.26853 14.206 8.13667 14.1852 8.00348 14.1627C7.8855 14.142 7.76775 14.1202 7.65195 14.0917C7.56645 14.071 7.48478 14.0476 7.4025 14.0232C7.01085 13.906 6.6327 13.7501 6.2802 13.5471C6.2784 13.5461 6.27652 13.5454 6.27472 13.5444C6.13912 13.4661 6.01222 13.374 5.88405 13.284C5.81752 13.2366 5.74793 13.1958 5.6832 13.145C5.61105 13.0891 5.54588 13.0245 5.47658 12.9648C5.37068 12.8727 5.26268 12.7824 5.1627 12.6831C5.11305 12.6329 5.06993 12.5761 5.02222 12.5238L6.36555 12.2818C6.7728 12.2079 7.04377 11.8182 6.9705 11.4102C6.89655 11.003 6.51202 10.732 6.09892 10.8053L2.96707 11.37C2.77155 11.4051 2.59793 11.5172 2.48438 11.6805C2.37083 11.8439 2.32687 12.0453 2.36205 12.2415L2.92672 15.3726C2.99265 15.7352 3.30833 15.9894 3.66428 15.9894C3.70823 15.9894 3.75293 15.9857 3.7983 15.9777C4.20555 15.9037 4.47652 15.514 4.40325 15.1061L4.16925 13.8099C4.17495 13.8154 4.18155 13.82 4.18725 13.8255C4.37498 14.0074 4.55175 14.1667 4.72703 14.304ZM13.1726 3.69558C13.1594 3.68508 13.1445 3.67743 13.1312 3.667C13.0534 3.60685 12.9693 3.5563 12.889 3.49968C12.7215 3.38028 12.5542 3.26103 12.377 3.15843C12.3641 3.15093 12.3499 3.1456 12.3368 3.13818C12.116 3.01233 11.8914 2.89353 11.6573 2.79475L11.5781 2.76183C11.4661 2.71495 11.3569 2.66958 11.2331 2.6263C10.913 2.51935 10.6413 2.44465 10.3813 2.39268C10.2159 2.35833 10.0582 2.33245 9.90795 2.31265C9.88508 2.3095 9.86182 2.30883 9.83895 2.3059C9.73373 2.29345 9.62857 2.28123 9.534 2.2762C9.35887 2.25858 9.17505 2.2498 9 2.2498C5.27782 2.2498 2.25 5.27763 2.25 8.9998C2.25 9.41433 2.58548 9.7498 3 9.7498C3.41453 9.7498 3.75 9.41433 3.75 8.9998C3.75 6.10525 6.10545 3.7498 9 3.7498C9.17145 3.7498 9.34028 3.7672 9.50903 3.78378C9.63113 3.7936 9.76297 3.81438 9.89617 3.83695C10.0142 3.85758 10.1319 3.8794 10.2477 3.9079C10.3332 3.92868 10.4149 3.95208 10.4971 3.97638C11.0449 4.1404 11.5594 4.39338 12.0246 4.72158C12.0874 4.7665 12.1535 4.80505 12.2146 4.85313C12.2863 4.90863 12.3511 4.97305 12.42 5.03223C12.5275 5.12583 12.6368 5.21748 12.7393 5.3194C12.788 5.36875 12.8305 5.42448 12.8773 5.47585L11.5342 5.7178C11.1269 5.79175 10.856 6.18145 10.9292 6.58938C10.9951 6.95193 11.3108 7.2061 11.6668 7.2061C11.7107 7.2061 11.7554 7.20243 11.8008 7.1944L14.9326 6.62973C15.1282 6.59455 15.3018 6.4825 15.4153 6.31915C15.5289 6.1558 15.5729 5.95443 15.5377 5.75815L14.973 2.62705C14.8991 2.2198 14.513 1.9474 14.1014 2.0221C13.6942 2.09605 13.4232 2.48575 13.4965 2.89368L13.7305 4.18968C13.7215 4.18068 13.7109 4.17348 13.7017 4.16455C13.5185 3.98763 13.3452 3.83155 13.1726 3.69558Z" fill="black"/>
</svg>
