<svg width="24" height="24" viewBox="0 0 24 24" fill="none" xmlns="http://www.w3.org/2000/svg">
<path d="M12 7.99972C11.7664 7.99927 11.5399 8.08064 11.36 8.22972L5.36003 13.2297C5.15581 13.3995 5.02739 13.6434 5.00301 13.9078C4.97863 14.1722 5.06029 14.4355 5.23003 14.6397C5.39977 14.8439 5.64368 14.9724 5.90811 14.9967C6.17253 15.0211 6.43581 14.9395 6.64003 14.7697L12 10.2897L17.36 14.6097C17.4623 14.6928 17.58 14.7548 17.7064 14.7923C17.8327 14.8297 17.9652 14.8418 18.0962 14.8278C18.2272 14.8139 18.3542 14.7742 18.4699 14.711C18.5855 14.6479 18.6875 14.5625 18.77 14.4597C18.8616 14.3569 18.931 14.2363 18.9738 14.1054C19.0166 13.9745 19.0319 13.8362 19.0187 13.6992C19.0056 13.5621 18.9643 13.4292 18.8974 13.3089C18.8305 13.1885 18.7395 13.0833 18.63 12.9997L12.63 8.16972C12.4449 8.04421 12.2231 7.98435 12 7.99972Z" fill="white"/>
</svg>
